<?xml version="1.0" standalone="no"?>
<!DOCTYPE svg PUBLIC "-//W3C//DTD SVG 20010904//EN"
 "http://www.w3.org/TR/2001/REC-SVG-20010904/DTD/svg10.dtd">
<svg version="1.0" xmlns="http://www.w3.org/2000/svg"
 width="731.000000pt" height="731.000000pt" viewBox="0 0 731.000000 731.000000"
 preserveAspectRatio="xMidYMid meet">
<metadata>
Created by potrace 1.14, written by Peter Selinger 2001-2017
</metadata>
<g transform="translate(0.000000,731.000000) scale(0.100000,-0.100000)"
fill="#000000" stroke="none">
<path d="M0 3655 l0 -3655 3655 0 3655 0 0 3655 0 3655 -3655 0 -3655 0 0
-3655z m5050 3179 c70 -16 162 -64 214 -112 46 -43 105 -140 126 -210 17 -55
20 -93 20 -258 l0 -194 194 0 c223 0 280 -12 382 -78 72 -48 102 -79 148 -155
57 -95 66 -159 66 -451 l0 -256 93 0 c181 -1 302 -46 402 -151 62 -64 109
-155 125 -238 13 -71 13 -891 0 -962 -32 -165 -161 -310 -321 -360 -54 -17
-95 -19 -389 -19 -250 0 -330 -3 -337 -12 -6 -7 -97 -183 -204 -390 -106 -208
-196 -378 -200 -378 -4 0 -96 174 -205 388 l-199 387 -102 3 -103 3 -17 -29
c-10 -16 -65 -122 -123 -235 -58 -114 -107 -207 -110 -207 -3 0 -59 105 -125
233 l-120 232 -616 3 c-486 2 -618 -1 -626 -10 -6 -7 -97 -183 -203 -390 -107
-208 -196 -378 -200 -378 -4 0 -93 170 -200 378 -106 207 -197 383 -203 390
-6 7 -34 12 -72 12 -38 0 -67 -5 -73 -12 -5 -7 -78 -146 -162 -308 -84 -162
-155 -298 -159 -302 -3 -4 -78 133 -166 305 l-161 312 -269 5 c-294 6 -310 9
-406 71 -104 66 -186 187 -209 308 -6 31 -10 235 -10 490 0 473 2 497 56 603
15 29 51 78 81 109 98 103 220 148 401 149 l92 0 0 256 c0 292 9 356 66 451
46 76 76 107 148 155 102 66 159 78 382 78 l194 0 0 194 c0 165 3 203 20 258
49 160 172 278 330 320 60 15 176 17 1373 17 1150 1 1316 -1 1377 -15z m-510
-4101 c229 -62 399 -288 400 -531 l0 -54 43 37 c23 20 74 52 112 70 183 88
393 69 559 -49 148 -105 226 -260 226 -446 0 -133 -32 -227 -112 -336 l-45
-61 73 -56 c195 -151 324 -412 324 -655 0 -100 -51 -124 -332 -159 -191 -23
-710 -23 -905 0 -179 22 -292 50 -315 78 -33 39 -16 249 28 363 7 18 2 19 -97
14 -145 -7 -504 8 -631 27 -159 23 -219 41 -247 72 -22 26 -23 32 -18 118 17
250 144 483 346 635 l34 26 -35 49 c-76 107 -108 205 -108 331 1 365 345 624
700 527z m-2557 -148 c190 -40 345 -179 407 -364 l26 -78 44 39 c52 47 165
102 238 117 183 38 371 -18 502 -149 110 -110 162 -234 161 -388 0 -140 -33
-235 -117 -343 l-43 -57 37 -24 c209 -139 361 -425 362 -679 0 -80 -16 -102
-93 -124 -341 -99 -1348 -74 -1459 37 -18 18 -20 29 -16 118 l4 97 -281 6
c-281 6 -426 19 -558 53 -106 26 -112 34 -110 146 4 248 143 508 347 655 l30
21 -47 68 c-59 88 -87 167 -94 271 -12 168 42 311 161 428 137 136 314 189
499 150z"/>
<path d="M2325 6676 c-81 -25 -145 -81 -191 -166 -17 -31 -20 -65 -24 -320
l-5 -285 -280 -5 c-259 -5 -283 -7 -326 -26 -60 -28 -119 -87 -150 -150 -24
-49 -24 -51 -27 -406 l-3 -357 -197 -3 c-193 -3 -198 -4 -254 -31 -70 -34
-131 -101 -158 -173 -19 -52 -20 -77 -20 -504 0 -420 1 -453 19 -500 25 -66
61 -112 114 -148 78 -54 91 -56 407 -61 l295 -6 109 -212 c59 -117 111 -213
115 -213 3 0 55 97 116 215 l109 215 171 0 170 0 150 -295 c83 -162 152 -295
155 -295 3 0 73 133 155 295 l150 295 720 0 720 0 69 -135 c37 -74 71 -135 75
-135 3 0 38 61 76 135 l70 135 205 0 205 0 150 -295 c83 -162 152 -295 155
-295 3 0 73 133 155 295 l150 295 350 0 c388 0 430 5 511 61 25 17 58 49 75
72 57 79 59 98 59 583 0 421 -1 446 -20 498 -27 72 -88 139 -158 173 -56 27
-61 28 -254 31 l-197 3 -3 357 c-3 355 -3 357 -27 406 -31 63 -90 122 -150
150 -43 19 -67 21 -326 26 l-280 5 -5 280 c-5 260 -7 283 -27 327 -26 57 -89
119 -151 150 l-47 23 -1330 2 c-1047 1 -1339 -1 -1370 -11z m1406 -325 l29
-29 0 -142 0 -142 -29 -29 c-16 -16 -39 -29 -51 -29 -12 0 -35 13 -51 29 l-29
29 0 142 0 142 29 29 c16 16 39 29 51 29 12 0 35 -13 51 -29z m-648 -152 c31
-14 240 -372 240 -412 0 -61 -75 -98 -122 -59 -20 17 -214 345 -226 383 -9 28
12 74 38 87 29 14 41 14 70 1z m1279 -19 c24 -24 29 -37 25 -58 -7 -36 -202
-372 -228 -394 -61 -51 -148 18 -116 91 6 15 56 105 111 198 117 204 145 225
208 163z m-1642 -496 c128 -74 150 -93 150 -136 0 -35 -39 -78 -73 -78 -12 0
-79 33 -147 73 -93 53 -127 79 -134 99 -17 48 22 105 74 107 8 1 66 -29 130
-65z m2084 55 c33 -15 52 -62 40 -97 -7 -20 -41 -46 -134 -99 -68 -40 -135
-73 -147 -73 -58 0 -94 84 -55 128 19 22 240 152 259 152 7 0 23 -5 37 -11z
m-954 -95 c159 -47 319 -177 388 -314 122 -246 82 -528 -103 -726 -43 -46 -48
-56 -38 -71 20 -26 15 -74 -9 -100 l-21 -23 -386 0 c-381 0 -385 0 -408 22
-26 24 -31 73 -10 101 10 15 5 25 -38 71 -183 195 -225 473 -107 716 42 87
166 219 245 263 63 34 149 66 212 77 68 12 208 4 275 -16z m-1059 -553 c28
-35 25 -85 -7 -110 -25 -20 -40 -21 -209 -21 -204 0 -219 4 -231 67 -5 27 -1
37 25 63 l31 31 186 -3 c181 -3 186 -4 205 -27z m2201 -1 c25 -26 29 -36 24
-63 -12 -63 -27 -67 -231 -67 -169 0 -184 1 -209 21 -46 36 -32 111 24 132 8
3 93 6 188 6 l174 1 30 -30z m-948 -781 c35 -28 36 -80 1 -114 l-24 -25 -341
0 -341 0 -24 25 c-35 34 -34 86 1 114 26 20 38 21 364 21 326 0 338 -1 364
-21z m-34 -239 c12 -12 20 -33 20 -55 0 -59 -26 -75 -121 -75 -78 0 -81 -1
-112 -34 -44 -46 -103 -63 -159 -46 -24 7 -57 27 -75 46 -31 33 -34 34 -112
34 -95 0 -121 16 -121 75 0 22 8 43 20 55 19 19 33 20 330 20 297 0 311 -1
330 -20z"/>
<path d="M3563 5495 c-209 -57 -352 -242 -353 -455 0 -135 48 -247 148 -342
93 -89 191 -128 322 -128 131 0 229 39 322 128 100 95 148 207 148 342 -1 305
-296 533 -587 455z"/>
<path d="M4290 2585 c-126 -35 -242 -145 -276 -260 -70 -243 82 -476 332 -510
157 -21 327 75 398 225 28 59 31 74 31 165 0 93 -2 105 -33 167 -83 170 -277
261 -452 213z"/>
<path d="M5213 2136 c-201 -65 -315 -283 -254 -484 34 -112 103 -192 208 -243
187 -91 424 -10 517 176 98 198 16 434 -184 529 -56 27 -78 31 -155 33 -55 2
-106 -3 -132 -11z"/>
<path d="M4065 1689 c-68 -43 -162 -143 -208 -220 -41 -70 -81 -185 -92 -265
l-6 -51 43 -8 c224 -37 516 -53 748 -40 l135 7 50 66 c28 35 84 92 125 124 41
33 77 62 79 64 3 2 -7 17 -21 32 -39 41 -85 119 -104 175 -18 53 -43 82 -110
122 l-41 25 -60 -24 c-152 -63 -308 -57 -473 18 -9 4 -35 -6 -65 -25z"/>
<path d="M5008 1211 c-87 -59 -131 -104 -197 -205 -52 -81 -88 -179 -98 -266
-5 -56 -5 -57 21 -64 99 -25 259 -38 513 -43 286 -6 460 4 628 33 44 8 82 14
84 14 2 0 1 23 -3 51 -11 80 -52 198 -93 268 -46 78 -151 184 -227 230 l-55
33 -63 -22 c-42 -15 -96 -24 -163 -27 -97 -4 -130 1 -256 43 -8 3 -48 -17 -91
-45z"/>
<path d="M1755 2423 c-117 -42 -191 -107 -243 -213 -24 -49 -27 -66 -27 -160
0 -97 2 -110 31 -170 39 -82 98 -141 182 -182 62 -31 73 -33 172 -33 99 0 110
2 171 32 80 40 150 111 187 191 36 80 42 203 13 285 -55 157 -187 255 -354
263 -62 4 -94 0 -132 -13z"/>
<path d="M2683 2131 c-106 -39 -179 -107 -231 -218 -23 -50 -27 -71 -27 -153
0 -86 3 -101 32 -162 40 -85 106 -151 191 -191 61 -29 76 -32 162 -32 131 1
192 25 281 114 85 86 112 149 112 271 1 63 -5 98 -20 137 -45 112 -136 199
-246 237 -65 22 -188 20 -254 -3z"/>
<path d="M1519 1511 c-114 -84 -202 -208 -243 -341 -26 -84 -39 -167 -28 -174
16 -10 227 -37 369 -46 81 -6 220 -8 308 -4 l161 6 18 45 c41 99 171 262 260
327 19 13 19 15 2 41 -33 51 -90 107 -154 153 -61 43 -66 45 -96 33 -104 -43
-154 -54 -246 -54 -79 0 -108 5 -170 27 -114 41 -108 42 -181 -13z"/>
<path d="M2500 1219 c-125 -80 -214 -194 -271 -346 -26 -70 -50 -193 -37 -193
3 0 30 -5 59 -10 273 -53 856 -53 1128 0 30 5 57 12 59 15 10 10 -19 148 -44
210 -55 136 -160 263 -277 333 l-56 34 -63 -22 c-43 -16 -94 -24 -163 -27 -97
-4 -132 2 -255 43 -8 3 -44 -14 -80 -37z"/>
</g>
</svg>
